<mxfile host="app.diagrams.net" agent="Mozilla/5.0 (Windows NT 10.0; Win64; x64) AppleWebKit/537.36 (KHTML, like Gecko) Chrome/139.0.0.0 Safari/537.36" version="28.2.0">
  <diagram name="Page-1" id="-fORK37648hEAS0hQ_zi">
    <mxGraphModel dx="1042" dy="562" grid="1" gridSize="10" guides="1" tooltips="1" connect="1" arrows="1" fold="1" page="1" pageScale="1" pageWidth="850" pageHeight="1100" math="0" shadow="0">
      <root>
        <mxCell id="0" />
        <mxCell id="1" parent="0" />
        <mxCell id="6zjgOrCj7R7MlmCkWjps-2" value="Client - Server Architecture" style="text;html=1;align=center;verticalAlign=middle;whiteSpace=wrap;rounded=0;" vertex="1" parent="1">
          <mxGeometry x="240" y="30" width="440" height="70" as="geometry" />
        </mxCell>
        <mxCell id="6zjgOrCj7R7MlmCkWjps-11" value="" style="edgeStyle=orthogonalEdgeStyle;rounded=0;orthogonalLoop=1;jettySize=auto;html=1;" edge="1" parent="1" source="6zjgOrCj7R7MlmCkWjps-3" target="6zjgOrCj7R7MlmCkWjps-10">
          <mxGeometry relative="1" as="geometry" />
        </mxCell>
        <mxCell id="6zjgOrCj7R7MlmCkWjps-3" value="Application" style="rounded=0;whiteSpace=wrap;html=1;" vertex="1" parent="1">
          <mxGeometry x="130" y="300" width="430" height="110" as="geometry" />
        </mxCell>
        <mxCell id="6zjgOrCj7R7MlmCkWjps-4" value="Client" style="rounded=0;whiteSpace=wrap;html=1;" vertex="1" parent="1">
          <mxGeometry x="110" y="100" width="120" height="60" as="geometry" />
        </mxCell>
        <mxCell id="6zjgOrCj7R7MlmCkWjps-5" value="Client = One who requests a resource" style="text;html=1;align=center;verticalAlign=middle;whiteSpace=wrap;rounded=0;" vertex="1" parent="1">
          <mxGeometry x="320" y="115" width="250" height="30" as="geometry" />
        </mxCell>
        <mxCell id="6zjgOrCj7R7MlmCkWjps-6" value="Server = One who responds to the client" style="text;html=1;align=center;verticalAlign=middle;whiteSpace=wrap;rounded=0;" vertex="1" parent="1">
          <mxGeometry x="320" y="160" width="250" height="30" as="geometry" />
        </mxCell>
        <mxCell id="6zjgOrCj7R7MlmCkWjps-7" value="Server" style="rounded=0;whiteSpace=wrap;html=1;" vertex="1" parent="1">
          <mxGeometry x="660" y="115" width="120" height="60" as="geometry" />
        </mxCell>
        <mxCell id="6zjgOrCj7R7MlmCkWjps-8" value="1 - Tier Architecture" style="text;html=1;align=center;verticalAlign=middle;whiteSpace=wrap;rounded=0;" vertex="1" parent="1">
          <mxGeometry x="210" y="220" width="210" height="60" as="geometry" />
        </mxCell>
        <mxCell id="6zjgOrCj7R7MlmCkWjps-9" value="Developers" style="text;html=1;align=center;verticalAlign=middle;whiteSpace=wrap;rounded=0;" vertex="1" parent="1">
          <mxGeometry x="160" y="320" width="60" height="30" as="geometry" />
        </mxCell>
        <mxCell id="6zjgOrCj7R7MlmCkWjps-10" value="Dead" style="rounded=0;whiteSpace=wrap;html=1;" vertex="1" parent="1">
          <mxGeometry x="620" y="300" width="160" height="110" as="geometry" />
        </mxCell>
        <mxCell id="6zjgOrCj7R7MlmCkWjps-13" value="2 - Tier Architecture" style="text;html=1;align=center;verticalAlign=middle;whiteSpace=wrap;rounded=0;" vertex="1" parent="1">
          <mxGeometry x="340" y="460" width="210" height="60" as="geometry" />
        </mxCell>
        <mxCell id="6zjgOrCj7R7MlmCkWjps-17" value="Same Laptop" style="text;html=1;align=center;verticalAlign=middle;whiteSpace=wrap;rounded=0;" vertex="1" parent="1">
          <mxGeometry x="430" y="320" width="60" height="30" as="geometry" />
        </mxCell>
        <mxCell id="6zjgOrCj7R7MlmCkWjps-18" value="Both Client and Server are the same" style="text;html=1;align=center;verticalAlign=middle;whiteSpace=wrap;rounded=0;" vertex="1" parent="1">
          <mxGeometry x="170" y="370" width="320" height="30" as="geometry" />
        </mxCell>
        <mxCell id="6zjgOrCj7R7MlmCkWjps-32" value="Databse" style="text;html=1;align=center;verticalAlign=middle;whiteSpace=wrap;rounded=0;" vertex="1" parent="1">
          <mxGeometry x="440" y="360" width="60" height="30" as="geometry" />
        </mxCell>
        <mxCell id="6zjgOrCj7R7MlmCkWjps-34" value="" style="rounded=0;whiteSpace=wrap;html=1;" vertex="1" parent="1">
          <mxGeometry x="30" y="560" width="790" height="530" as="geometry" />
        </mxCell>
        <mxCell id="6zjgOrCj7R7MlmCkWjps-35" value="Browser" style="rounded=1;whiteSpace=wrap;html=1;" vertex="1" parent="1">
          <mxGeometry x="105" y="690" width="100" height="60" as="geometry" />
        </mxCell>
        <mxCell id="6zjgOrCj7R7MlmCkWjps-36" value="Client = One who requests a resource" style="text;html=1;align=center;verticalAlign=middle;whiteSpace=wrap;rounded=0;" vertex="1" parent="1">
          <mxGeometry x="75" y="630" width="250" height="30" as="geometry" />
        </mxCell>
        <mxCell id="6zjgOrCj7R7MlmCkWjps-37" value="Browser" style="rounded=1;whiteSpace=wrap;html=1;" vertex="1" parent="1">
          <mxGeometry x="105" y="810" width="120" height="60" as="geometry" />
        </mxCell>
        <mxCell id="6zjgOrCj7R7MlmCkWjps-38" value="Browser" style="rounded=1;whiteSpace=wrap;html=1;" vertex="1" parent="1">
          <mxGeometry x="105" y="920" width="120" height="60" as="geometry" />
        </mxCell>
        <mxCell id="6zjgOrCj7R7MlmCkWjps-39" value="" style="shape=process;whiteSpace=wrap;html=1;backgroundOutline=1;rotation=90;" vertex="1" parent="1">
          <mxGeometry x="495" y="700" width="310" height="240" as="geometry" />
        </mxCell>
        <mxCell id="6zjgOrCj7R7MlmCkWjps-40" value="HDD 100 GB" style="text;html=1;align=center;verticalAlign=middle;whiteSpace=wrap;rounded=0;" vertex="1" parent="1">
          <mxGeometry x="605" y="950" width="60" height="30" as="geometry" />
        </mxCell>
        <mxCell id="6zjgOrCj7R7MlmCkWjps-41" value="10 GB" style="text;html=1;align=center;verticalAlign=middle;whiteSpace=wrap;rounded=0;" vertex="1" parent="1">
          <mxGeometry x="605" y="910" width="60" height="30" as="geometry" />
        </mxCell>
        <mxCell id="6zjgOrCj7R7MlmCkWjps-42" value="Application 5 GB" style="rounded=1;whiteSpace=wrap;html=1;" vertex="1" parent="1">
          <mxGeometry x="575" y="720" width="120" height="60" as="geometry" />
        </mxCell>
        <mxCell id="6zjgOrCj7R7MlmCkWjps-43" value="Data Base&lt;br&gt;5 GB" style="rounded=1;whiteSpace=wrap;html=1;" vertex="1" parent="1">
          <mxGeometry x="575" y="840" width="120" height="60" as="geometry" />
        </mxCell>
        <mxCell id="6zjgOrCj7R7MlmCkWjps-44" value="" style="endArrow=classic;startArrow=classic;html=1;rounded=0;exitX=0.5;exitY=0;exitDx=0;exitDy=0;" edge="1" parent="1" source="6zjgOrCj7R7MlmCkWjps-43">
          <mxGeometry width="50" height="50" relative="1" as="geometry">
            <mxPoint x="585" y="840" as="sourcePoint" />
            <mxPoint x="635" y="790" as="targetPoint" />
            <Array as="points">
              <mxPoint x="635" y="800" />
            </Array>
          </mxGeometry>
        </mxCell>
        <mxCell id="6zjgOrCj7R7MlmCkWjps-46" value="" style="curved=1;endArrow=classic;html=1;rounded=0;exitX=1;exitY=0.5;exitDx=0;exitDy=0;" edge="1" parent="1" source="6zjgOrCj7R7MlmCkWjps-37">
          <mxGeometry width="50" height="50" relative="1" as="geometry">
            <mxPoint x="485" y="800" as="sourcePoint" />
            <mxPoint x="535" y="750" as="targetPoint" />
            <Array as="points">
              <mxPoint x="455" y="870" />
              <mxPoint x="535" y="800" />
              <mxPoint x="485" y="750" />
            </Array>
          </mxGeometry>
        </mxCell>
        <mxCell id="6zjgOrCj7R7MlmCkWjps-47" value="" style="curved=1;endArrow=classic;html=1;rounded=0;exitX=1;exitY=0.5;exitDx=0;exitDy=0;" edge="1" parent="1" source="6zjgOrCj7R7MlmCkWjps-38">
          <mxGeometry width="50" height="50" relative="1" as="geometry">
            <mxPoint x="485" y="800" as="sourcePoint" />
            <mxPoint x="535" y="750" as="targetPoint" />
            <Array as="points">
              <mxPoint x="535" y="800" />
              <mxPoint x="485" y="750" />
            </Array>
          </mxGeometry>
        </mxCell>
        <mxCell id="6zjgOrCj7R7MlmCkWjps-48" value="Server = One who responds to the client" style="text;html=1;align=center;verticalAlign=middle;whiteSpace=wrap;rounded=0;" vertex="1" parent="1">
          <mxGeometry x="525" y="610" width="250" height="30" as="geometry" />
        </mxCell>
        <mxCell id="6zjgOrCj7R7MlmCkWjps-50" value="Network" style="text;html=1;align=center;verticalAlign=middle;whiteSpace=wrap;rounded=0;" vertex="1" parent="1">
          <mxGeometry x="105" y="580" width="60" height="30" as="geometry" />
        </mxCell>
        <mxCell id="6zjgOrCj7R7MlmCkWjps-51" value="" style="curved=1;endArrow=classic;html=1;rounded=0;" edge="1" parent="1" source="6zjgOrCj7R7MlmCkWjps-35">
          <mxGeometry width="50" height="50" relative="1" as="geometry">
            <mxPoint x="490" y="770" as="sourcePoint" />
            <mxPoint x="540" y="720" as="targetPoint" />
            <Array as="points">
              <mxPoint x="540" y="770" />
              <mxPoint x="490" y="720" />
            </Array>
          </mxGeometry>
        </mxCell>
      </root>
    </mxGraphModel>
  </diagram>
</mxfile>
